PathFileType	4	(X/Y/Z)	2014001\dynamic\2014001_C1_01.trc
DataRate	CameraRate	NumFrames	NumMarkers	Units	OrigDataRate	OrigDataStartFrame	OrigNumFrames
100.000000	100.000000	4	52	mm	100.000000	96	387
Frame#	Time	L_IAS			L_IPS			R_IPS			R_IAS			L_FTC			L_FLE			L_FME			L_FAX			L_TTC			L_FAL			L_TAM			L_FCC			L_FM1			L_FM2			L_FM5			R_FTC			R_FLE			R_FME			R_FAX			R_TTC			R_FAL			R_TAM			R_FCC			R_FM1			R_FM2			R_FM5			CV7			TV10			SXS			SJN			L_SIA			L_SRS			L_SAA			L_SAE			L_HLE			L_HME			L_UOA			L_RSP			L_UHE			L_HM2			L_HM5			R_SIA			R_SRS			R_SAA			R_SAE			R_HLE			R_HME			R_UOA			R_RSP			R_UHE			R_HM2			R_HM5			
		X1	Y1	Z1	X2	Y2	Z2	X3	Y3	Z3	X4	Y4	Z4	X5	Y5	Z5	X6	Y6	Z6	X7	Y7	Z7	X8	Y8	Z8	X9	Y9	Z9	X10	Y10	Z10	X11	Y11	Z11	X12	Y12	Z12	X13	Y13	Z13	X14	Y14	Z14	X15	Y15	Z15	X16	Y16	Z16	X17	Y17	Z17	X18	Y18	Z18	X19	Y19	Z19	X20	Y20	Z20	X21	Y21	Z21	X22	Y22	Z22	X23	Y23	Z23	X24	Y24	Z24	X25	Y25	Z25	X26	Y26	Z26	X27	Y27	Z27	X28	Y28	Z28	X29	Y29	Z29	X30	Y30	Z30	X31	Y31	Z31	X32	Y32	Z32	X33	Y33	Z33	X34	Y34	Z34	X35	Y35	Z35	X36	Y36	Z36	X37	Y37	Z37	X38	Y38	Z38	X39	Y39	Z39	X40	Y40	Z40	X41	Y41	Z41	X42	Y42	Z42	X43	Y43	Z43	X44	Y44	Z44	X45	Y45	Z45	X46	Y46	Z46	X47	Y47	Z47	X48	Y48	Z48	X49	Y49	Z49	X50	Y50	Z50	X51	Y51	Z51	X52	Y52	Z52	

97	0.96	107.5311737060547	871.5405273437505	699.6995239257815	188.1021728515626	913.7736816406255	873.6359863281255	277.8308410644532	914.6022338867192	874.0038452148442	347.2361145019532	895.4085083007817	693.7004394531252	65.62965393066409	784.7958984375005	781.9309692382817	131.548080444336	434.9219665527346	811.6027832031255	242.3536682128907	429.7834167480471	781.3210449218755	136.4261474609376	374.6337890625001	837.693237304688	178.5113830566407	352.6614990234376	773.226928710938	212.9707336425782	63.09108734130862	880.7440795898442	297.4341430664064	78.76462554931643	849.2211303710942	265.9614562988282	26.00599670410158	919.4647827148442	269.2464294433595	25.38115310668947	737.9428710937502	206.6212005615236	36.32881546020509	734.5430908203127	166.6963806152344	23.95124053955079	794.6625366210942	416.4552917480471	800.574096679688	773.1403198242192	418.4424133300784	466.4781799316409	651.255554199219	300.8906555175782	445.6819763183596	629.1482543945315	428.0844421386721	403.4079895019534	665.4859008789065	383.3550109863282	395.2701721191409	597.4290161132815	410.7046203613284	87.18718719482425	693.6625976562502	331.0437622070314	99.94852447509771	648.2459106445315	354.9464111328126	39.23109436035158	728.3607177734377	365.650604248047	55.01858520507815	544.1027832031252	421.5343322753909	69.10447692871097	552.7036132812502	455.0215454101565	48.1598930358887	603.3548583984377	220.3800354003907	1384.952758789063	837.1508178710942	220.5841674804689	1151.636474609375	905.1250610351567	211.110076904297	1151.47412109375	674.584167480469	213.4009704589845	1315.647583007813	712.6821289062502	126.3547897338868	1191.373291015625	911.111206054688	131.8592071533204	1321.646606445313	885.8468627929692	21.59747886657716	1318.25048828125	814.7752075195317	34.76264953613283	1328.175903320313	773.5214233398442	-34.70586013793947	1042.426025390625	820.6445312500005	40.52611541748048	1015.105834960938	854.9562988281255	-9.014282226562504	1013.056091308594	856.9250488281255	12.65918064117432	807.8925781250005	741.563171386719	-54.75714111328128	805.8214721679692	787.4635620117192	8.511506080627445	725.9966430664065	714.3931274414065	-57.34356689453128	727.7094726562502	795.498901367188	335.4846496582032	1197.336791992188	907.425903320313	310.0479431152345	1319.95458984375	878.283081054688	410.0363769531252	1315.466674804688	797.5636596679692	396.4916992187502	1317.192504882813	749.099304199219	478.9710693359377	1021.78759765625	814.5968627929692	403.1939392089846	1004.506958007813	842.234497070313	449.4553527832034	998.1510620117192	845.7388305664067	452.0160217285159	812.6557617187505	717.3503417968752	514.979919433594	811.3978881835942	772.9867553710942	472.1529541015627	725.1429443359377	688.4707641601565	517.492126464844	731.467712402344	779.4501953125005	
98	0.97	107.2793273925782	871.2192993164067	697.415222167969	188.1681060791016	913.5286254882817	871.0400390625005	277.910125732422	914.3068847656255	871.305786132813	346.9766540527345	895.1978149414067	690.8031005859377	65.50507354736331	784.557495117188	779.8820800781255	131.5755004882813	434.7544555664065	810.063354492188	242.3516387939454	429.5222473144534	779.685180664063	136.4406280517579	374.5620422363282	836.2478027343755	178.5590362548829	352.3546142578126	771.901489257813	213.0369415283204	63.19728851318362	880.5807495117192	297.6118164062501	78.84407806396487	849.109497070313	266.051483154297	26.15961265563966	919.409790039063	269.1963500976564	25.3534393310547	737.9053955078127	206.5926666259767	36.33652114868165	734.4664306640627	166.6844635009766	23.96937942504884	794.6408691406255	416.3344726562502	800.3940429687505	769.7909545898442	417.6018981933596	466.7428283691409	646.606872558594	300.0283508300782	446.4324340820315	624.5859985351565	427.1764221191409	403.2573547363284	659.8528442382815	382.2912902832032	396.439880371094	591.5854492187502	409.5847167968752	86.56903839111331	681.6292114257815	329.9007873535157	100.157585144043	636.5377197265627	353.6423645019532	37.81032562255861	715.323913574219	364.4049682617189	57.182487487793	531.5396728515627	420.3075866699221	71.00385284423831	540.371520996094	453.8137512207034	49.13821411132815	590.5290527343752	220.7761230468751	1384.722534179688	834.2858886718755	220.8561096191407	1151.421997070313	902.4265747070317	211.200653076172	1151.124755859375	671.933532714844	213.6623840332032	1315.314697265625	709.8980712890627	126.7206649780274	1191.3505859375	908.5508422851567	132.2510528564454	1321.552368164063	883.145874023438	21.93195533752442	1318.051513671875	812.1445312500005	35.11464691162111	1327.894897460938	770.7922973632817	-34.47517776489259	1042.3544921875	818.5722045898442	40.65777969360353	1015.165100097657	853.1541137695317	-8.891730308532718	1013.207641601563	855.0342407226567	12.74317264556885	807.295288085938	741.0442504882815	-54.77437973022464	805.6222534179692	786.8552856445317	8.747600555419925	725.1370239257815	714.6881103515627	-57.48685836791995	727.5561523437502	795.5031738281255	335.7514038085939	1197.085815429688	904.706909179688	310.4202575683595	1319.674682617188	875.4212036132817	410.3538818359377	1315.015869140625	794.656616210938	396.8203125000002	1316.70361328125	746.1933593750002	478.9609985351565	1021.393737792969	812.5070800781255	403.1587219238284	1004.291198730469	840.142700195313	449.4307250976565	997.8982543945317	843.503540039063	451.9361877441409	811.702026367188	716.3345336914065	514.893493652344	810.789184570313	771.9655151367192	471.9944763183596	724.017272949219	687.9761352539065	517.396179199219	730.885192871094	778.894409179688	
99	0.98	107.0553588867188	870.895385742188	695.1302490234377	188.2640533447266	913.287719726563	868.434936523438	278.0194396972657	914.0154418945317	868.594360351563	346.741912841797	894.9743652343755	687.892517089844	65.40206146240237	784.3247070312505	777.8762817382817	131.6133422851563	434.5852355957034	808.5158081054692	242.3655548095704	429.2603454589846	778.0532226562505	136.4668121337891	374.4856872558595	834.8105468750005	178.6226806640626	352.0488586425782	770.5806274414067	213.1047973632814	63.31190872192386	880.4179687500005	297.7635803222657	78.88946533203128	848.983032226563	266.142547607422	26.31524658203126	919.358032226563	269.1531982421876	25.32969093322755	737.8711547851565	206.5572509765626	36.35101318359376	734.384460449219	166.670394897461	23.99182128906251	794.6148071289067	416.236755371094	800.2119750976567	766.431579589844	416.7703552246096	467.001159667969	642.000183105469	299.1729431152345	447.186950683594	620.0684204101565	426.2763366699221	403.1185607910159	654.2590942382815	381.202850341797	397.6122131347659	585.7977294921877	408.4920349121096	86.08174896240237	669.6870727539065	328.7785949707032	100.4760055541993	624.978210449219	352.3952941894532	36.57866668701173	702.4259033203127	363.1238708496095	59.47711181640628	519.1263427734377	419.0401916503909	73.03113555908206	528.178894042969	452.5930786132815	50.27251815795901	577.8331298828127	221.2133636474611	1384.492065429688	831.3950805664067	221.1576385498048	1151.198852539063	899.6773071289067	211.3388061523439	1150.786010742188	669.2403564453127	213.9694824218751	1314.989624023438	707.083679199219	127.1185836791993	1191.331909179688	905.9516601562505	132.6835021972657	1321.454956054688	880.4135742187505	22.31418609619141	1317.861206054688	809.487426757813	35.50971984863283	1327.625854492188	768.0370483398442	-34.21017456054689	1042.276733398438	816.4627075195317	40.84188079833986	1015.223022460938	851.2832031250005	-8.718372344970707	1013.349670410157	853.084350585938	12.85304069519044	806.7212524414067	740.427185058594	-54.74753570556643	805.4448852539067	786.115844726563	8.969614982604984	724.359558105469	714.7568969726565	-57.57417678833011	727.4315185546877	795.323364257813	336.0503540039064	1196.823486328125	901.9575805664067	310.8294982910157	1319.393310546875	872.5418090820317	410.7121582031252	1314.572631835938	791.7415161132817	397.1941223144534	1316.229125976563	743.2783203125002	478.9888305664065	1021.004272460938	810.3791503906255	403.1574401855471	1004.07177734375	837.9985961914067	449.4378662109377	997.6491088867192	841.266235351563	451.8422546386721	810.810424804688	715.1668701171877	514.8005981445315	810.1950073242192	770.7960815429692	471.8074035644534	722.9617919921877	687.2945556640627	517.278015136719	730.3162841796877	778.148071289063	
100	0.99	106.8571166992188	870.5696411132817	692.8385009765627	188.393295288086	913.0463867187505	865.8222045898442	278.160369873047	913.7260742187505	865.866333007813	346.5293579101564	894.7376098632817	684.9649047851565	65.32198333740237	784.0961303710942	775.897094726563	131.6615142822266	434.4122619628909	806.9567260742192	242.3965148925782	428.9962158203127	776.4232788085942	136.5050048828126	374.4012145996095	833.378295898438	178.703842163086	351.7413940429689	769.2619018554692	213.1756896972657	63.43250274658206	880.2560424804692	297.8948974609376	78.89963531494143	848.8424682617192	266.2343750000001	26.47187805175783	919.3093261718755	269.1195373535157	25.30802726745607	737.8408203125002	206.5163726806642	36.37124252319337	734.2980957031252	166.6556549072266	24.0188617706299	794.5866699218755	416.1639404296877	800.0249633789067	763.071228027344	415.9466247558596	467.2480163574221	637.437683105469	298.3229064941407	447.9383544921877	615.607360839844	425.3902282714846	402.9902954101565	648.7019653320315	380.0833435058595	398.7837829589846	580.0715332031252	407.4338378906252	85.71802520751956	657.8465576171877	327.6777343750001	100.8944091796876	613.581726074219	351.2207336425782	35.52627563476564	689.6795043945315	361.7890930175782	61.89683914184573	506.8780212402346	417.7171936035159	75.18233489990237	516.1270141601565	451.349060058594	51.55206680297854	565.2648925781252	221.692596435547	1384.259033203125	828.4751586914067	221.4911651611329	1150.96826171875	896.8791503906255	211.5213470458986	1150.454467773438	666.4995727539065	214.3215179443361	1314.669067382813	704.2354736328127	127.5481414794922	1191.312255859375	903.312133789063	133.1567993164063	1321.352905273438	877.646362304688	22.74360656738282	1317.681030273438	806.7994995117192	35.94697952270509	1327.369262695313	765.2537841796877	-33.90881729125978	1042.195434570313	814.3075561523442	41.07729721069337	1015.277587890625	849.3375854492192	-8.494847297668461	1013.480834960938	851.0701293945317	12.99454879760743	806.1713867187505	739.694763183594	-54.67462539672854	805.286987304688	785.2360839843755	9.183288574218754	723.6605224609377	714.5901489257815	-57.60371017456058	727.3323364257815	794.9489135742192	336.3822631835939	1196.548706054688	899.1740112304692	311.2765502929689	1319.108154296875	869.640014648438	411.111022949219	1314.133911132813	788.8125610351567	397.6125488281252	1315.765380859375	740.3480224609377	479.0534973144534	1020.61376953125	808.2042846679692	403.1894531250002	1003.84521484375	835.7985229492192	449.4758300781252	997.3976440429692	839.0188598632817	451.739196777344	809.978149414063	713.8421630859377	514.703308105469	809.6105346679692	769.473510742188	471.5985107421877	721.9732666015627	686.415710449219	517.138854980469	729.7554931640627	777.2046508789067	
